<svg xmlns="http://www.w3.org/2000/svg" viewBox="0 0 228.71 28.71"><defs><style>.cls-1{fill:none;stroke:#fff;stroke-miterlimit:10;stroke-width:4px;}.cls-2{fill:#fff;}</style></defs><title>Logo-HH-White</title><g id="Laag_2" data-name="Laag 2"><g id="Laag_1-2" data-name="Laag 1"><g id="Laag_1-2-2" data-name="Laag 1-2"><circle class="cls-1" cx="123.97" cy="13.75" r="4.16"/></g><path class="cls-2" d="M.23,21.9A.71.71,0,0,1,0,21.36V1.56A.71.71,0,0,1,.23,1,.77.77,0,0,1,.78.81H4.83A.81.81,0,0,1,5.39,1a.7.7,0,0,1,.22.54V8.25a5.87,5.87,0,0,1,4.71-2A6.17,6.17,0,0,1,13.41,7,5.38,5.38,0,0,1,15.57,9.3,8,8,0,0,1,16.35,13v8.37a.71.71,0,0,1-.23.54.75.75,0,0,1-.55.21H11.49a.75.75,0,0,1-.53-.23.7.7,0,0,1-.22-.52V13.17a3,3,0,0,0-.66-2.06,2.41,2.41,0,0,0-1.89-.73,2.46,2.46,0,0,0-1.89.73,2.9,2.9,0,0,0-.69,2.06v8.19a.7.7,0,0,1-.22.54.81.81,0,0,1-.56.21h-4A.77.77,0,0,1,.23,21.9Z"/><path class="cls-2" d="M21.18,20.44A7.6,7.6,0,0,1,19,14.73V13.8a7.74,7.74,0,0,1,2.22-5.58,7.86,7.86,0,0,1,5.67-2,8.55,8.55,0,0,1,4.36,1,6.67,6.67,0,0,1,2.67,2.85,9.35,9.35,0,0,1,.89,4.13V15a.73.73,0,0,1-.23.55.75.75,0,0,1-.55.23H24.54v.18a3.72,3.72,0,0,0,.63,2.17,2,2,0,0,0,1.71.83A2.15,2.15,0,0,0,28,18.65a4.05,4.05,0,0,0,.83-.74,1.61,1.61,0,0,1,.43-.38,1.64,1.64,0,0,1,.53-.07h3.93a.73.73,0,0,1,.46.16.53.53,0,0,1,.2.41,3.07,3.07,0,0,1-.89,1.83,7,7,0,0,1-2.58,1.8,9.81,9.81,0,0,1-4,.75A8.1,8.1,0,0,1,21.18,20.44Zm8.13-7.75v-.06a3.48,3.48,0,0,0-.63-2.23,2.13,2.13,0,0,0-1.77-.8,2.1,2.1,0,0,0-1.76.8,3.54,3.54,0,0,0-.61,2.23v.06Z"/><path class="cls-2" d="M37.75,21.9a.7.7,0,0,1-.22-.54V1.56A.7.7,0,0,1,37.75,1a.79.79,0,0,1,.56-.21h3.75a.72.72,0,0,1,.75.75v19.8a.73.73,0,0,1-.21.52.71.71,0,0,1-.54.23H38.31A.79.79,0,0,1,37.75,21.9Z"/><path class="cls-2" d="M46.45,27.6a.7.7,0,0,1-.22-.54V7.26a.7.7,0,0,1,.22-.54A.79.79,0,0,1,47,6.51h3.57a.72.72,0,0,1,.75.75V8.34A5.49,5.49,0,0,1,56,6.21,5.89,5.89,0,0,1,60.55,8a7.85,7.85,0,0,1,1.79,5.18q0,.39,0,1.11t0,1.14a7.78,7.78,0,0,1-1.8,5.1A5.84,5.84,0,0,1,56,22.41a5,5,0,0,1-4.35-2v6.63a.72.72,0,0,1-.75.75H47A.79.79,0,0,1,46.45,27.6Zm9.72-10.16a4.07,4.07,0,0,0,.68-2.2q0-.3,0-.93t0-.93a4.16,4.16,0,0,0-.68-2.21,2.69,2.69,0,0,0-3.85,0,3.62,3.62,0,0,0-.69,2.08q0,.39,0,1.14t0,1.11a3.2,3.2,0,0,0,.7,1.94,2.39,2.39,0,0,0,1.91.76A2.21,2.21,0,0,0,56.17,17.44Z"/><path class="cls-2" d="M65.46,4.12a.75.75,0,0,1-.21-.55V.78a.74.74,0,0,1,.22-.55A.7.7,0,0,1,66,0h3.75a.71.71,0,0,1,.55.23.75.75,0,0,1,.23.55V3.57a.73.73,0,0,1-.23.55.75.75,0,0,1-.55.23H66A.71.71,0,0,1,65.46,4.12Zm0,17.76a.7.7,0,0,1-.22-.52V7.26a.7.7,0,0,1,.22-.54A.76.76,0,0,1,66,6.51h3.75a.77.77,0,0,1,.55.21.71.71,0,0,1,.23.54v14.1a.71.71,0,0,1-.23.54.77.77,0,0,1-.55.21H66A.74.74,0,0,1,65.47,21.88Z"/><path class="cls-2" d="M74.17,21.88a.7.7,0,0,1-.22-.52V7.26a.7.7,0,0,1,.22-.54.76.76,0,0,1,.53-.21h3.69a.72.72,0,0,1,.75.75V8.4a5.86,5.86,0,0,1,2.08-1.59,6.82,6.82,0,0,1,2.93-.6,5.9,5.9,0,0,1,3,.78,5.37,5.37,0,0,1,2.1,2.31A8.18,8.18,0,0,1,90.06,13v8.37a.73.73,0,0,1-.21.52.71.71,0,0,1-.54.23h-4a.79.79,0,0,1-.56-.21.7.7,0,0,1-.22-.54V13.17a3,3,0,0,0-.65-2.07A2.38,2.38,0,0,0,82,10.38a2.46,2.46,0,0,0-1.89.73,2.9,2.9,0,0,0-.69,2.06v8.19a.73.73,0,0,1-.21.52.71.71,0,0,1-.54.23h-4A.74.74,0,0,1,74.17,21.88Z"/><path class="cls-2" d="M96.45,27.78a6.53,6.53,0,0,1-2.58-2.15,4,4,0,0,1-.78-2,.65.65,0,0,1,.24-.51.8.8,0,0,1,.54-.21h4a.85.85,0,0,1,.48.13,1.21,1.21,0,0,1,.33.47,2.68,2.68,0,0,0,.78,1,2.43,2.43,0,0,0,1.5.38,2.58,2.58,0,0,0,1.92-.65,3,3,0,0,0,.63-2.14v-2a5.76,5.76,0,0,1-4.35,1.65A5.94,5.94,0,0,1,94.54,20a8,8,0,0,1-1.75-5.17l0-.81a9,9,0,0,1,1.63-5.73,5.74,5.74,0,0,1,4.79-2.07,6,6,0,0,1,2.7.58,5.81,5.81,0,0,1,2,1.58V7.29a.79.79,0,0,1,.21-.56.7.7,0,0,1,.54-.22h3.66a.74.74,0,0,1,.55.22.77.77,0,0,1,.23.56V21.66A6.58,6.58,0,0,1,107,26.91a8.59,8.59,0,0,1-5.82,1.8A10.2,10.2,0,0,1,96.45,27.78Zm6.36-10.86a3.48,3.48,0,0,0,.72-2,8.2,8.2,0,0,0,0-.9,7.7,7.7,0,0,0,0-.9,3.41,3.41,0,0,0-.72-2,2.32,2.32,0,0,0-1.92-.77,2.27,2.27,0,0,0-1.92.79,3.92,3.92,0,0,0-.66,2.21l0,.66a5.35,5.35,0,0,0,.57,2.69,2.16,2.16,0,0,0,2,1A2.32,2.32,0,0,0,102.81,16.92Z"/><path class="cls-2" d="M139,21.9a.7.7,0,0,1-.22-.54V1.56A.7.7,0,0,1,139,1a.79.79,0,0,1,.56-.21h4a.77.77,0,0,1,.55.21.71.71,0,0,1,.23.54V8.25a5.87,5.87,0,0,1,4.71-2,6.17,6.17,0,0,1,3.09.78,5.38,5.38,0,0,1,2.16,2.31,8,8,0,0,1,.78,3.69v8.37a.71.71,0,0,1-.23.54.77.77,0,0,1-.55.21h-4.08a.74.74,0,0,1-.53-.23.7.7,0,0,1-.22-.52V13.17a3,3,0,0,0-.66-2.06,2.41,2.41,0,0,0-1.89-.73,2.46,2.46,0,0,0-1.89.73,2.9,2.9,0,0,0-.69,2.06v8.19a.71.71,0,0,1-.23.54.77.77,0,0,1-.55.21h-4A.79.79,0,0,1,139,21.9Z"/><path class="cls-2" d="M160.2,21.79a4.87,4.87,0,0,1-2-1.69,4.12,4.12,0,0,1-.73-2.37,4,4,0,0,1,1.69-3.31,10.38,10.38,0,0,1,4.67-1.76l3.72-.57v-.36a2.41,2.41,0,0,0-.45-1.62,2,2,0,0,0-1.53-.51,2.19,2.19,0,0,0-1,.21,5.39,5.39,0,0,0-.91.63,3.64,3.64,0,0,1-.69.48.35.35,0,0,1-.3.21h-3.48a.72.72,0,0,1-.5-.19.55.55,0,0,1-.16-.47,3.33,3.33,0,0,1,.81-1.82,6.12,6.12,0,0,1,2.37-1.72,9.52,9.52,0,0,1,3.93-.72q3.72,0,5.52,1.63a5.71,5.71,0,0,1,1.8,4.43v9.09a.73.73,0,0,1-.21.52.71.71,0,0,1-.54.23h-3.69a.74.74,0,0,1-.53-.23.7.7,0,0,1-.22-.52V20.31a4.74,4.74,0,0,1-1.83,1.51,6.17,6.17,0,0,1-2.79.59A6.73,6.73,0,0,1,160.2,21.79ZM166.74,18a3.53,3.53,0,0,0,.83-2.52v-.36l-2.49.42q-2.52.48-2.52,1.8a1.3,1.3,0,0,0,.58,1.11,2.45,2.45,0,0,0,1.46.42A2.81,2.81,0,0,0,166.74,18Z"/><path class="cls-2" d="M176.4,21.88a.7.7,0,0,1-.22-.52V7.26a.7.7,0,0,1,.22-.54.76.76,0,0,1,.53-.21h3.69a.72.72,0,0,1,.75.75V8.4a5.86,5.86,0,0,1,2.08-1.59,6.82,6.82,0,0,1,2.93-.6,5.9,5.9,0,0,1,3,.78,5.37,5.37,0,0,1,2.1,2.31,8.18,8.18,0,0,1,.77,3.69v8.37a.73.73,0,0,1-.21.52.71.71,0,0,1-.54.23h-4a.79.79,0,0,1-.56-.21.7.7,0,0,1-.22-.54V13.17a3,3,0,0,0-.65-2.07,2.38,2.38,0,0,0-1.87-.72,2.46,2.46,0,0,0-1.89.73,2.9,2.9,0,0,0-.69,2.06v8.19a.73.73,0,0,1-.21.52.71.71,0,0,1-.54.23h-4A.74.74,0,0,1,176.4,21.88Z"/><path class="cls-2" d="M196.83,20.58a7.93,7.93,0,0,1-1.78-5.22l0-1,0-1.08a7.9,7.9,0,0,1,1.8-5.15,5.81,5.81,0,0,1,4.56-1.87A5.72,5.72,0,0,1,205.76,8V1.56A.7.7,0,0,1,206,1a.76.76,0,0,1,.53-.21h3.87a.77.77,0,0,1,.55.21.71.71,0,0,1,.23.54v19.8a.71.71,0,0,1-.23.54.77.77,0,0,1-.55.21h-3.57a.74.74,0,0,1-.53-.23.7.7,0,0,1-.22-.52v-.93a5.66,5.66,0,0,1-4.65,2A5.89,5.89,0,0,1,196.83,20.58Zm8.24-3.16a3.65,3.65,0,0,0,.69-2.09q.06-.84.06-1.14t-.06-1.11a3.13,3.13,0,0,0-.71-1.93,2.31,2.31,0,0,0-1.9-.77,2.28,2.28,0,0,0-1.94.79,4.16,4.16,0,0,0-.67,2.21l0,.93,0,.93a4.07,4.07,0,0,0,.67,2.2,2.23,2.23,0,0,0,1.94.8A2.26,2.26,0,0,0,205.07,17.42Z"/><path class="cls-2" d="M217,21.72a6.25,6.25,0,0,1-2.45-1.65,2.85,2.85,0,0,1-.79-1.74.65.65,0,0,1,.22-.5.8.8,0,0,1,.5-.19h3.63a.41.41,0,0,1,.3.12,6.53,6.53,0,0,1,.57.39,5.43,5.43,0,0,0,1.06.64,2.87,2.87,0,0,0,1.19.23,2.54,2.54,0,0,0,1.33-.31,1,1,0,0,0,.53-.89,1.09,1.09,0,0,0-.29-.78,2.89,2.89,0,0,0-1.08-.58,16.53,16.53,0,0,0-2.41-.59c-3.47-.7-5.19-2.3-5.19-4.8a4,4,0,0,1,.79-2.36,5.53,5.53,0,0,1,2.34-1.81A9.07,9.07,0,0,1,221,6.21a9.91,9.91,0,0,1,3.79.67,6.83,6.83,0,0,1,2.45,1.62,2.75,2.75,0,0,1,.84,1.73.69.69,0,0,1-.2.48.6.6,0,0,1-.46.21h-3.3a.66.66,0,0,1-.42-.12,4.73,4.73,0,0,1-.72-.45,10,10,0,0,0-.95-.56,2.53,2.53,0,0,0-1-.19,1.85,1.85,0,0,0-1.17.33,1,1,0,0,0-.42.84,1,1,0,0,0,.25.73,2.47,2.47,0,0,0,1.05.56,18.83,18.83,0,0,0,2.42.57,8,8,0,0,1,4.27,1.81,4.18,4.18,0,0,1-.66,6.63,10,10,0,0,1-5.59,1.34A10.66,10.66,0,0,1,217,21.72Z"/></g></g></svg>